<mxfile host="65bd71144e">
    <diagram id="d2k9UJR3CmxIdJL4uFYe" name="Page-1">
        <mxGraphModel dx="2479" dy="765" grid="0" gridSize="10" guides="1" tooltips="1" connect="1" arrows="1" fold="1" page="1" pageScale="1" pageWidth="700" pageHeight="1000" math="0" shadow="0">
            <root>
                <mxCell id="0"/>
                <mxCell id="1" parent="0"/>
                <mxCell id="217" value="グローバルナビゲーション（共通・ログアウト中）" style="shape=table;startSize=26;container=1;collapsible=0;childLayout=tableLayout;fontStyle=1;align=center;shadow=0;strokeColor=#d6b656;fillColor=#fff2cc;rounded=1;strokeWidth=3;" parent="1" vertex="1">
                    <mxGeometry x="1071" y="43" width="571" height="52" as="geometry"/>
                </mxCell>
                <mxCell id="218" value="" style="shape=tableRow;horizontal=0;startSize=0;swimlaneHead=0;swimlaneBody=0;top=0;left=0;bottom=0;right=0;collapsible=0;dropTarget=0;fillColor=none;points=[[0,0.5],[1,0.5]];portConstraint=eastwest;shadow=0;strokeColor=default;rounded=1;strokeWidth=3;" parent="217" vertex="1">
                    <mxGeometry y="26" width="571" height="26" as="geometry"/>
                </mxCell>
                <mxCell id="219" value="「ホーム」をクリック" style="shape=partialRectangle;html=1;whiteSpace=wrap;connectable=0;fillColor=none;top=0;left=0;bottom=0;right=0;overflow=hidden;shadow=0;strokeColor=default;align=center;rounded=1;strokeWidth=3;" parent="218" vertex="1">
                    <mxGeometry width="191" height="26" as="geometry">
                        <mxRectangle width="191" height="26" as="alternateBounds"/>
                    </mxGeometry>
                </mxCell>
                <mxCell id="263" value="「ログイン」をクリック" style="shape=partialRectangle;html=1;whiteSpace=wrap;connectable=0;fillColor=none;top=0;left=0;bottom=0;right=0;overflow=hidden;shadow=0;strokeColor=default;align=center;rounded=1;strokeWidth=3;" parent="218" vertex="1">
                    <mxGeometry x="191" width="191" height="26" as="geometry">
                        <mxRectangle width="191" height="26" as="alternateBounds"/>
                    </mxGeometry>
                </mxCell>
                <mxCell id="220" value="「新規会員登録」をクリック" style="shape=partialRectangle;html=1;whiteSpace=wrap;connectable=0;fillColor=none;top=0;left=0;bottom=0;right=0;overflow=hidden;shadow=0;strokeColor=default;align=center;rounded=1;strokeWidth=3;" parent="218" vertex="1">
                    <mxGeometry x="382" width="189" height="26" as="geometry">
                        <mxRectangle width="189" height="26" as="alternateBounds"/>
                    </mxGeometry>
                </mxCell>
                <mxCell id="221" value="「アカウント」登録画面" style="swimlane;fontStyle=1;childLayout=stackLayout;horizontal=1;startSize=26;fillColor=#fff2cc;horizontalStack=0;resizeParent=1;resizeParentMax=0;resizeLast=0;collapsible=1;marginBottom=0;html=1;shadow=0;strokeColor=#d6b656;fontFamily=Helvetica;fontSize=12;rounded=1;strokeWidth=3;" parent="1" vertex="1">
                    <mxGeometry x="1515" y="154" width="161" height="52" as="geometry"/>
                </mxCell>
                <mxCell id="222" value="「登録する」をクリック" style="text;strokeColor=none;fillColor=none;align=center;verticalAlign=top;spacingLeft=4;spacingRight=4;overflow=hidden;rotatable=0;points=[[0,0.5],[1,0.5]];portConstraint=eastwest;whiteSpace=wrap;html=1;shadow=0;fontFamily=Helvetica;fontSize=12;fontColor=default;startSize=30;rounded=1;strokeWidth=3;" parent="221" vertex="1">
                    <mxGeometry y="26" width="161" height="26" as="geometry"/>
                </mxCell>
                <mxCell id="227" value="" style="endArrow=classic;html=1;fontFamily=Helvetica;fontSize=12;fontColor=default;startSize=30;edgeStyle=orthogonalEdgeStyle;elbow=vertical;curved=1;rounded=1;strokeWidth=3;" parent="1" edge="1">
                    <mxGeometry width="50" height="50" relative="1" as="geometry">
                        <mxPoint x="1684" y="194" as="sourcePoint"/>
                        <mxPoint x="1682" y="167" as="targetPoint"/>
                        <Array as="points">
                            <mxPoint x="1726" y="194"/>
                            <mxPoint x="1726" y="167"/>
                        </Array>
                    </mxGeometry>
                </mxCell>
                <mxCell id="228" value="失敗" style="text;strokeColor=none;fillColor=none;align=left;verticalAlign=top;spacingLeft=4;spacingRight=4;overflow=hidden;rotatable=0;points=[[0,0.5],[1,0.5]];portConstraint=eastwest;whiteSpace=wrap;html=1;shadow=0;fontFamily=Helvetica;fontSize=10;fontColor=default;startSize=30;fontStyle=1;rounded=1;strokeWidth=3;" parent="1" vertex="1">
                    <mxGeometry x="1704" y="144" width="37" height="21" as="geometry"/>
                </mxCell>
                <mxCell id="231" value="グローバルナビゲーション（顧客・ログイン中）" style="shape=table;startSize=26;container=1;collapsible=0;childLayout=tableLayout;fontStyle=1;align=center;shadow=0;strokeColor=#d6b656;fillColor=#fff2cc;rounded=1;strokeWidth=3;" parent="1" vertex="1">
                    <mxGeometry x="-216" y="43" width="905" height="52" as="geometry"/>
                </mxCell>
                <mxCell id="232" value="" style="shape=tableRow;horizontal=0;startSize=0;swimlaneHead=0;swimlaneBody=0;top=0;left=0;bottom=0;right=0;collapsible=0;dropTarget=0;fillColor=none;points=[[0,0.5],[1,0.5]];portConstraint=eastwest;shadow=0;strokeColor=default;rounded=1;strokeWidth=3;" parent="231" vertex="1">
                    <mxGeometry y="26" width="905" height="26" as="geometry"/>
                </mxCell>
                <mxCell id="519" value="「ホーム」をクリック" style="shape=partialRectangle;html=1;whiteSpace=wrap;connectable=0;fillColor=none;top=0;left=0;bottom=0;right=0;overflow=hidden;shadow=0;strokeColor=default;align=center;rounded=1;strokeWidth=3;" parent="232" vertex="1">
                    <mxGeometry width="182" height="26" as="geometry">
                        <mxRectangle width="182" height="26" as="alternateBounds"/>
                    </mxGeometry>
                </mxCell>
                <mxCell id="284" value="「商品」をクリック" style="shape=partialRectangle;html=1;whiteSpace=wrap;connectable=0;fillColor=none;top=0;left=0;bottom=0;right=0;overflow=hidden;shadow=0;strokeColor=default;align=center;rounded=1;strokeWidth=3;" parent="232" vertex="1">
                    <mxGeometry x="182" width="182" height="26" as="geometry">
                        <mxRectangle width="182" height="26" as="alternateBounds"/>
                    </mxGeometry>
                </mxCell>
                <mxCell id="283" value="「買い物かご」をクリック" style="shape=partialRectangle;html=1;whiteSpace=wrap;connectable=0;fillColor=none;top=0;left=0;bottom=0;right=0;overflow=hidden;shadow=0;strokeColor=default;align=center;rounded=1;strokeWidth=3;" parent="232" vertex="1">
                    <mxGeometry x="364" width="182" height="26" as="geometry">
                        <mxRectangle width="182" height="26" as="alternateBounds"/>
                    </mxGeometry>
                </mxCell>
                <mxCell id="233" value="「お問い合わせ」をクリック" style="shape=partialRectangle;html=1;whiteSpace=wrap;connectable=0;fillColor=none;top=0;left=0;bottom=0;right=0;overflow=hidden;shadow=0;strokeColor=default;align=center;rounded=1;strokeWidth=3;" parent="232" vertex="1">
                    <mxGeometry x="546" width="179" height="26" as="geometry">
                        <mxRectangle width="179" height="26" as="alternateBounds"/>
                    </mxGeometry>
                </mxCell>
                <mxCell id="234" value="「アカウント」をクリック" style="shape=partialRectangle;html=1;whiteSpace=wrap;connectable=0;fillColor=none;top=0;left=0;bottom=0;right=0;overflow=hidden;shadow=0;strokeColor=default;align=center;rounded=1;strokeWidth=3;" parent="232" vertex="1">
                    <mxGeometry x="725" width="180" height="26" as="geometry">
                        <mxRectangle width="180" height="26" as="alternateBounds"/>
                    </mxGeometry>
                </mxCell>
                <mxCell id="253" value="「商品一覧」画面" style="swimlane;fontStyle=1;childLayout=stackLayout;horizontal=1;startSize=30;horizontalStack=0;resizeParent=1;resizeParentMax=0;resizeLast=0;collapsible=1;marginBottom=0;whiteSpace=wrap;html=1;shadow=0;strokeColor=#d6b656;fontFamily=Helvetica;fontSize=12;fillColor=#fff2cc;align=center;rounded=1;strokeWidth=3;" parent="1" vertex="1">
                    <mxGeometry x="-212" y="367" width="193" height="60" as="geometry"/>
                </mxCell>
                <mxCell id="254" value="「詳細」をクリック" style="text;align=center;verticalAlign=middle;spacingLeft=4;spacingRight=4;overflow=hidden;points=[[0,0.5],[1,0.5]];portConstraint=eastwest;rotatable=0;whiteSpace=wrap;html=1;shadow=0;fontFamily=Helvetica;fontSize=12;strokeColor=#D6B656;rounded=1;strokeWidth=3;" parent="253" vertex="1">
                    <mxGeometry y="30" width="193" height="30" as="geometry"/>
                </mxCell>
                <mxCell id="259" value="成功" style="text;strokeColor=none;fillColor=none;align=left;verticalAlign=top;spacingLeft=4;spacingRight=4;overflow=hidden;rotatable=0;points=[[0,0.5],[1,0.5]];portConstraint=eastwest;whiteSpace=wrap;html=1;shadow=0;fontFamily=Helvetica;fontSize=10;fontColor=default;startSize=30;fontStyle=1;rounded=1;strokeWidth=3;" parent="1" vertex="1">
                    <mxGeometry x="1602" y="209" width="37" height="21" as="geometry"/>
                </mxCell>
                <mxCell id="261" value="成功" style="text;strokeColor=none;fillColor=none;align=left;verticalAlign=top;spacingLeft=4;spacingRight=4;overflow=hidden;rotatable=0;points=[[0,0.5],[1,0.5]];portConstraint=eastwest;whiteSpace=wrap;html=1;shadow=0;fontFamily=Helvetica;fontSize=10;fontColor=default;startSize=30;fontStyle=1;rounded=1;strokeWidth=3;" parent="1" vertex="1">
                    <mxGeometry x="1317" y="293.5" width="37" height="21" as="geometry"/>
                </mxCell>
                <mxCell id="265" value="失敗" style="text;strokeColor=none;fillColor=none;align=left;verticalAlign=top;spacingLeft=4;spacingRight=4;overflow=hidden;rotatable=0;points=[[0,0.5],[1,0.5]];portConstraint=eastwest;whiteSpace=wrap;html=1;shadow=0;fontFamily=Helvetica;fontSize=10;fontColor=default;startSize=30;fontStyle=1;rounded=1;strokeWidth=3;" parent="1" vertex="1">
                    <mxGeometry x="1432" y="148" width="37" height="21" as="geometry"/>
                </mxCell>
                <mxCell id="266" value="" style="endArrow=classic;html=1;fontFamily=Helvetica;fontSize=12;fontColor=default;startSize=30;edgeStyle=orthogonalEdgeStyle;elbow=vertical;curved=1;rounded=1;strokeWidth=3;" parent="1" edge="1">
                    <mxGeometry width="50" height="50" relative="1" as="geometry">
                        <mxPoint x="1412" y="198" as="sourcePoint"/>
                        <mxPoint x="1410" y="171" as="targetPoint"/>
                        <Array as="points">
                            <mxPoint x="1454" y="198"/>
                            <mxPoint x="1454" y="171"/>
                        </Array>
                    </mxGeometry>
                </mxCell>
                <mxCell id="267" value="「ログイン」画面" style="swimlane;fontStyle=1;childLayout=stackLayout;horizontal=1;startSize=26;fillColor=#fff2cc;horizontalStack=0;resizeParent=1;resizeParentMax=0;resizeLast=0;collapsible=1;marginBottom=0;html=1;shadow=0;strokeColor=#d6b656;fontFamily=Helvetica;fontSize=12;rounded=1;strokeWidth=3;" parent="1" vertex="1">
                    <mxGeometry x="1230" y="157" width="177" height="52" as="geometry"/>
                </mxCell>
                <mxCell id="268" value="「ログインする」をクリック" style="text;strokeColor=none;fillColor=none;align=center;verticalAlign=top;spacingLeft=4;spacingRight=4;overflow=hidden;rotatable=0;points=[[0,0.5],[1,0.5]];portConstraint=eastwest;whiteSpace=wrap;html=1;shadow=0;fontFamily=Helvetica;fontSize=12;fontColor=default;startSize=30;rounded=1;strokeWidth=3;" parent="267" vertex="1">
                    <mxGeometry y="26" width="177" height="26" as="geometry"/>
                </mxCell>
                <mxCell id="832" style="edgeStyle=none;shape=flexArrow;html=1;dashed=1;strokeWidth=3;endArrow=block;endFill=1;opacity=20;" parent="1" source="343" edge="1">
                    <mxGeometry relative="1" as="geometry">
                        <mxPoint x="608" y="325" as="targetPoint"/>
                    </mxGeometry>
                </mxCell>
                <mxCell id="343" value="「顧客情報編集」画面" style="swimlane;fontStyle=1;childLayout=stackLayout;horizontal=1;startSize=30;horizontalStack=0;resizeParent=1;resizeParentMax=0;resizeLast=0;collapsible=1;marginBottom=0;whiteSpace=wrap;html=1;shadow=0;strokeColor=#d6b656;fontFamily=Helvetica;fontSize=12;fillColor=#fff2cc;align=center;rounded=1;strokeWidth=3;" parent="1" vertex="1">
                    <mxGeometry x="506.5" y="350" width="169" height="90" as="geometry"/>
                </mxCell>
                <mxCell id="345" value="「編集」をクリック" style="text;strokeColor=#D6B656;fillColor=none;align=center;verticalAlign=middle;spacingLeft=4;spacingRight=4;overflow=hidden;points=[[0,0.5],[1,0.5]];portConstraint=eastwest;rotatable=0;whiteSpace=wrap;html=1;shadow=0;fontFamily=Helvetica;fontSize=12;fontColor=default;rounded=1;strokeWidth=3;" parent="343" vertex="1">
                    <mxGeometry y="30" width="169" height="30" as="geometry"/>
                </mxCell>
                <mxCell id="346" value="「削除」をクリック" style="text;strokeColor=#D6B656;fillColor=none;align=center;verticalAlign=middle;spacingLeft=4;spacingRight=4;overflow=hidden;points=[[0,0.5],[1,0.5]];portConstraint=eastwest;rotatable=0;whiteSpace=wrap;html=1;shadow=0;fontFamily=Helvetica;fontSize=12;fontColor=default;rounded=1;strokeWidth=3;" parent="343" vertex="1">
                    <mxGeometry y="60" width="169" height="30" as="geometry"/>
                </mxCell>
                <mxCell id="347" value="「注文履歴一覧」画面" style="swimlane;fontStyle=1;childLayout=stackLayout;horizontal=1;startSize=30;horizontalStack=0;resizeParent=1;resizeParentMax=0;resizeLast=0;collapsible=1;marginBottom=0;whiteSpace=wrap;html=1;shadow=0;strokeColor=#d6b656;fontFamily=Helvetica;fontSize=12;fillColor=#fff2cc;align=center;rounded=1;strokeWidth=3;" parent="1" vertex="1">
                    <mxGeometry x="71.5" y="500.77" width="180" height="60" as="geometry"/>
                </mxCell>
                <mxCell id="348" value="「注文履歴」をクリック" style="text;strokeColor=#D6B656;fillColor=none;align=center;verticalAlign=middle;spacingLeft=4;spacingRight=4;overflow=hidden;points=[[0,0.5],[1,0.5]];portConstraint=eastwest;rotatable=0;whiteSpace=wrap;html=1;shadow=0;fontFamily=Helvetica;fontSize=12;fontColor=default;rounded=1;strokeWidth=3;" parent="347" vertex="1">
                    <mxGeometry y="30" width="180" height="30" as="geometry"/>
                </mxCell>
                <mxCell id="350" value="「アカウント」の項目" style="swimlane;fontStyle=1;childLayout=stackLayout;horizontal=1;startSize=30;horizontalStack=0;resizeParent=1;resizeParentMax=0;resizeLast=0;collapsible=1;marginBottom=0;whiteSpace=wrap;html=1;shadow=0;strokeColor=#d6b656;fontFamily=Helvetica;fontSize=12;fillColor=#fff2cc;align=center;rounded=1;strokeWidth=3;" parent="1" vertex="1">
                    <mxGeometry x="515" y="150" width="169" height="120" as="geometry"/>
                </mxCell>
                <mxCell id="351" value="「顧客情報設定」をクリック" style="text;align=center;verticalAlign=middle;spacingLeft=4;spacingRight=4;overflow=hidden;points=[[0,0.5],[1,0.5]];portConstraint=eastwest;rotatable=0;whiteSpace=wrap;html=1;shadow=0;fontFamily=Helvetica;fontSize=12;strokeColor=#D6B656;rounded=1;strokeWidth=3;" parent="350" vertex="1">
                    <mxGeometry y="30" width="169" height="30" as="geometry"/>
                </mxCell>
                <mxCell id="352" value="「注文履歴」をクリック" style="text;strokeColor=#D6B656;fillColor=none;align=center;verticalAlign=middle;spacingLeft=4;spacingRight=4;overflow=hidden;points=[[0,0.5],[1,0.5]];portConstraint=eastwest;rotatable=0;whiteSpace=wrap;html=1;shadow=0;fontFamily=Helvetica;fontSize=12;fontColor=default;rounded=1;strokeWidth=3;" parent="350" vertex="1">
                    <mxGeometry y="60" width="169" height="30" as="geometry"/>
                </mxCell>
                <mxCell id="353" value="「ログアウト」をクリック" style="text;strokeColor=#D6B656;fillColor=none;align=center;verticalAlign=middle;spacingLeft=4;spacingRight=4;overflow=hidden;points=[[0,0.5],[1,0.5]];portConstraint=eastwest;rotatable=0;whiteSpace=wrap;html=1;shadow=0;fontFamily=Helvetica;fontSize=12;fontColor=default;rounded=1;strokeWidth=3;" parent="350" vertex="1">
                    <mxGeometry y="90" width="169" height="30" as="geometry"/>
                </mxCell>
                <mxCell id="354" value="「商品詳細」画面" style="swimlane;fontStyle=1;childLayout=stackLayout;horizontal=1;startSize=30;horizontalStack=0;resizeParent=1;resizeParentMax=0;resizeLast=0;collapsible=1;marginBottom=0;whiteSpace=wrap;html=1;shadow=0;strokeColor=#d6b656;fontFamily=Helvetica;fontSize=12;fillColor=#fff2cc;align=center;rounded=1;strokeWidth=3;" parent="1" vertex="1">
                    <mxGeometry x="-208" y="258" width="188" height="60" as="geometry"/>
                </mxCell>
                <mxCell id="355" value="「カート追加」をクリック" style="text;align=center;verticalAlign=middle;spacingLeft=4;spacingRight=4;overflow=hidden;points=[[0,0.5],[1,0.5]];portConstraint=eastwest;rotatable=0;whiteSpace=wrap;html=1;shadow=0;fontFamily=Helvetica;fontSize=12;strokeColor=#D6B656;rounded=1;strokeWidth=3;" parent="354" vertex="1">
                    <mxGeometry y="30" width="188" height="30" as="geometry"/>
                </mxCell>
                <mxCell id="356" value="「買い物かご」画面" style="swimlane;fontStyle=1;childLayout=stackLayout;horizontal=1;startSize=30;horizontalStack=0;resizeParent=1;resizeParentMax=0;resizeLast=0;collapsible=1;marginBottom=0;whiteSpace=wrap;html=1;shadow=0;strokeColor=#d6b656;fontFamily=Helvetica;fontSize=12;fillColor=#fff2cc;align=center;rounded=1;strokeWidth=3;" parent="1" vertex="1">
                    <mxGeometry x="70" y="148" width="173.5" height="60" as="geometry"/>
                </mxCell>
                <mxCell id="357" value="「お会計」をクリック" style="text;align=center;verticalAlign=middle;spacingLeft=4;spacingRight=4;overflow=hidden;points=[[0,0.5],[1,0.5]];portConstraint=eastwest;rotatable=0;whiteSpace=wrap;html=1;shadow=0;fontFamily=Helvetica;fontSize=12;strokeColor=#D6B656;rounded=1;strokeWidth=3;" parent="356" vertex="1">
                    <mxGeometry y="30" width="173.5" height="30" as="geometry"/>
                </mxCell>
                <mxCell id="358" value="「支払い」画面" style="swimlane;fontStyle=1;childLayout=stackLayout;horizontal=1;startSize=30;horizontalStack=0;resizeParent=1;resizeParentMax=0;resizeLast=0;collapsible=1;marginBottom=0;whiteSpace=wrap;html=1;shadow=0;strokeColor=#d6b656;fontFamily=Helvetica;fontSize=12;fillColor=#fff2cc;align=center;rounded=1;strokeWidth=3;" parent="1" vertex="1">
                    <mxGeometry x="68.5" y="253" width="175" height="91" as="geometry"/>
                </mxCell>
                <mxCell id="772" value="「支払う」をクリック" style="text;align=center;verticalAlign=middle;spacingLeft=4;spacingRight=4;overflow=hidden;points=[[0,0.5],[1,0.5]];portConstraint=eastwest;rotatable=0;whiteSpace=wrap;html=1;shadow=0;fontFamily=Helvetica;fontSize=12;strokeColor=#D6B656;rounded=1;strokeWidth=3;" parent="358" vertex="1">
                    <mxGeometry y="30" width="175" height="30" as="geometry"/>
                </mxCell>
                <mxCell id="359" value="「戻る」をクリック" style="text;align=center;verticalAlign=middle;spacingLeft=4;spacingRight=4;overflow=hidden;points=[[0,0.5],[1,0.5]];portConstraint=eastwest;rotatable=0;whiteSpace=wrap;html=1;shadow=0;fontFamily=Helvetica;fontSize=12;strokeColor=#D6B656;rounded=1;strokeWidth=3;" parent="358" vertex="1">
                    <mxGeometry y="60" width="175" height="31" as="geometry"/>
                </mxCell>
                <mxCell id="817" value="" style="edgeStyle=none;shape=flexArrow;html=1;dashed=1;strokeWidth=3;endArrow=block;endFill=1;opacity=20;" parent="1" source="360" target="359" edge="1">
                    <mxGeometry relative="1" as="geometry"/>
                </mxCell>
                <mxCell id="360" value="「支払い成功」画面" style="swimlane;fontStyle=1;childLayout=stackLayout;horizontal=1;startSize=30;horizontalStack=0;resizeParent=1;resizeParentMax=0;resizeLast=0;collapsible=1;marginBottom=0;whiteSpace=wrap;html=1;shadow=0;strokeColor=#d6b656;fontFamily=Helvetica;fontSize=12;fillColor=#fff2cc;align=center;rounded=1;strokeWidth=3;" parent="1" vertex="1">
                    <mxGeometry x="68.5" y="397.77" width="177.5" height="60" as="geometry"/>
                </mxCell>
                <mxCell id="361" value="「注文履歴へ進む」をクリック" style="text;align=center;verticalAlign=middle;spacingLeft=4;spacingRight=4;overflow=hidden;points=[[0,0.5],[1,0.5]];portConstraint=eastwest;rotatable=0;whiteSpace=wrap;html=1;shadow=0;fontFamily=Helvetica;fontSize=12;strokeColor=#D6B656;rounded=1;strokeWidth=3;" parent="360" vertex="1">
                    <mxGeometry y="30" width="177.5" height="30" as="geometry"/>
                </mxCell>
                <mxCell id="362" value="「注文完了」画面" style="swimlane;fontStyle=1;childLayout=stackLayout;horizontal=1;startSize=30;horizontalStack=0;resizeParent=1;resizeParentMax=0;resizeLast=0;collapsible=1;marginBottom=0;whiteSpace=wrap;html=1;shadow=0;strokeColor=#d6b656;fontFamily=Helvetica;fontSize=12;fillColor=#fff2cc;align=center;rounded=1;strokeWidth=3;" parent="1" vertex="1">
                    <mxGeometry x="-213" y="466" width="194" height="60" as="geometry"/>
                </mxCell>
                <mxCell id="363" value="「商品名」をクリック" style="text;strokeColor=#D6B656;fillColor=none;align=center;verticalAlign=middle;spacingLeft=4;spacingRight=4;overflow=hidden;points=[[0,0.5],[1,0.5]];portConstraint=eastwest;rotatable=0;whiteSpace=wrap;html=1;shadow=0;fontFamily=Helvetica;fontSize=12;fontColor=default;rounded=1;strokeWidth=3;" parent="362" vertex="1">
                    <mxGeometry y="30" width="194" height="30" as="geometry"/>
                </mxCell>
                <mxCell id="364" value="「問い合わせフォーム」画面" style="swimlane;fontStyle=1;childLayout=stackLayout;horizontal=1;startSize=30;horizontalStack=0;resizeParent=1;resizeParentMax=0;resizeLast=0;collapsible=1;marginBottom=0;whiteSpace=wrap;html=1;shadow=0;strokeColor=#d6b656;fontFamily=Helvetica;fontSize=12;fillColor=#fff2cc;align=center;rounded=1;strokeWidth=3;" parent="1" vertex="1">
                    <mxGeometry x="277" y="150" width="174" height="60" as="geometry"/>
                </mxCell>
                <mxCell id="365" value="「送信」をクリック" style="text;align=center;verticalAlign=middle;spacingLeft=4;spacingRight=4;overflow=hidden;points=[[0,0.5],[1,0.5]];portConstraint=eastwest;rotatable=0;whiteSpace=wrap;html=1;shadow=0;fontFamily=Helvetica;fontSize=12;strokeColor=#D6B656;rounded=1;strokeWidth=3;" parent="364" vertex="1">
                    <mxGeometry y="30" width="174" height="30" as="geometry"/>
                </mxCell>
                <mxCell id="366" value="" style="edgeStyle=orthogonalEdgeStyle;endArrow=classic;html=1;rounded=1;endSize=8;startSize=8;strokeWidth=3;" parent="1" edge="1">
                    <mxGeometry width="50" height="50" relative="1" as="geometry">
                        <mxPoint x="1349" y="211" as="sourcePoint"/>
                        <mxPoint x="-171" y="363" as="targetPoint"/>
                        <Array as="points">
                            <mxPoint x="1349" y="767"/>
                            <mxPoint x="-253" y="767"/>
                            <mxPoint x="-253" y="331"/>
                            <mxPoint x="-171" y="331"/>
                        </Array>
                    </mxGeometry>
                </mxCell>
                <mxCell id="369" value="" style="edgeStyle=orthogonalEdgeStyle;endArrow=classic;html=1;rounded=1;endSize=8;startSize=8;strokeWidth=3;entryX=-0.036;entryY=0.417;entryDx=0;entryDy=0;entryPerimeter=0;" parent="1" target="253" edge="1">
                    <mxGeometry width="50" height="50" relative="1" as="geometry">
                        <mxPoint x="1596" y="206" as="sourcePoint"/>
                        <mxPoint x="-219" y="371" as="targetPoint"/>
                        <Array as="points">
                            <mxPoint x="1596" y="726"/>
                            <mxPoint x="-271" y="726"/>
                            <mxPoint x="-271" y="392"/>
                        </Array>
                    </mxGeometry>
                </mxCell>
                <mxCell id="370" value="" style="edgeStyle=segmentEdgeStyle;endArrow=classic;html=1;curved=0;rounded=1;endSize=8;startSize=8;labelBackgroundColor=default;strokeColor=default;fontFamily=Helvetica;fontSize=11;fontColor=default;shape=connector;strokeWidth=3;" parent="1" edge="1">
                    <mxGeometry width="50" height="50" relative="1" as="geometry">
                        <mxPoint x="-116" y="361" as="sourcePoint"/>
                        <mxPoint x="-116" y="325" as="targetPoint"/>
                        <Array as="points">
                            <mxPoint x="-116" y="340"/>
                            <mxPoint x="-116" y="340"/>
                        </Array>
                    </mxGeometry>
                </mxCell>
                <mxCell id="371" value="" style="edgeStyle=elbowEdgeStyle;elbow=vertical;endArrow=classic;html=1;curved=0;rounded=1;endSize=8;startSize=8;labelBackgroundColor=default;strokeColor=default;fontFamily=Helvetica;fontSize=11;fontColor=default;shape=connector;strokeWidth=3;exitX=0.246;exitY=1.038;exitDx=0;exitDy=0;exitPerimeter=0;" parent="1" source="232" edge="1">
                    <mxGeometry width="50" height="50" relative="1" as="geometry">
                        <mxPoint x="44" y="95" as="sourcePoint"/>
                        <mxPoint x="-76" y="363" as="targetPoint"/>
                        <Array as="points">
                            <mxPoint x="-52" y="333"/>
                            <mxPoint x="-69" y="339"/>
                            <mxPoint x="8" y="330"/>
                            <mxPoint x="24" y="384"/>
                        </Array>
                    </mxGeometry>
                </mxCell>
                <mxCell id="372" value="" style="edgeStyle=elbowEdgeStyle;elbow=vertical;endArrow=classic;html=1;curved=0;rounded=1;endSize=8;startSize=8;labelBackgroundColor=default;strokeColor=default;fontFamily=Helvetica;fontSize=11;fontColor=default;shape=connector;entryX=-0.035;entryY=-0.267;entryDx=0;entryDy=0;entryPerimeter=0;strokeWidth=3;" parent="1" target="357" edge="1">
                    <mxGeometry width="50" height="50" relative="1" as="geometry">
                        <mxPoint x="-99" y="253" as="sourcePoint"/>
                        <mxPoint x="106" y="195" as="targetPoint"/>
                        <Array as="points">
                            <mxPoint x="-16" y="170"/>
                            <mxPoint x="-95" y="182"/>
                        </Array>
                    </mxGeometry>
                </mxCell>
                <mxCell id="378" value="" style="endArrow=classic;html=1;fontFamily=Helvetica;fontSize=12;fontColor=default;startSize=30;edgeStyle=elbowEdgeStyle;elbow=vertical;entryX=0.458;entryY=0;entryDx=0;entryDy=0;entryPerimeter=0;rounded=1;strokeWidth=3;" parent="1" target="491" edge="1">
                    <mxGeometry width="50" height="50" relative="1" as="geometry">
                        <mxPoint x="1174.5" y="95" as="sourcePoint"/>
                        <mxPoint x="1098" y="152" as="targetPoint"/>
                        <Array as="points">
                            <mxPoint x="1139" y="119"/>
                        </Array>
                    </mxGeometry>
                </mxCell>
                <mxCell id="388" value="" style="endArrow=classic;html=1;fontFamily=Helvetica;fontSize=12;fontColor=default;startSize=30;fontStyle=1;rounded=1;strokeWidth=3;" parent="1" edge="1">
                    <mxGeometry width="50" height="50" relative="1" as="geometry">
                        <mxPoint x="156.25" y="237" as="sourcePoint"/>
                        <mxPoint x="156.25" y="250" as="targetPoint"/>
                        <Array as="points">
                            <mxPoint x="156.25" y="208"/>
                        </Array>
                    </mxGeometry>
                </mxCell>
                <mxCell id="391" value="" style="endArrow=classic;html=1;fontFamily=Helvetica;fontSize=12;fontColor=default;startSize=30;rounded=1;strokeWidth=3;" parent="1" edge="1">
                    <mxGeometry width="50" height="50" relative="1" as="geometry">
                        <mxPoint x="154" y="486.77" as="sourcePoint"/>
                        <mxPoint x="154" y="499.77" as="targetPoint"/>
                        <Array as="points">
                            <mxPoint x="154" y="457.77"/>
                        </Array>
                    </mxGeometry>
                </mxCell>
                <mxCell id="402" value="" style="edgeStyle=segmentEdgeStyle;endArrow=classic;html=1;curved=0;rounded=1;endSize=8;startSize=8;labelBackgroundColor=default;strokeColor=default;fontFamily=Helvetica;fontSize=11;fontColor=default;shape=connector;strokeWidth=3;" parent="1" edge="1">
                    <mxGeometry width="50" height="50" relative="1" as="geometry">
                        <mxPoint x="-213" y="511" as="sourcePoint"/>
                        <mxPoint x="-213" y="276" as="targetPoint"/>
                        <Array as="points">
                            <mxPoint x="-288" y="511"/>
                            <mxPoint x="-288" y="276"/>
                        </Array>
                    </mxGeometry>
                </mxCell>
                <mxCell id="409" value="" style="edgeStyle=segmentEdgeStyle;endArrow=classic;html=1;curved=0;rounded=1;endSize=8;startSize=8;labelBackgroundColor=default;strokeColor=default;fontFamily=Helvetica;fontSize=11;fontColor=default;shape=connector;strokeWidth=3;" parent="1" edge="1">
                    <mxGeometry width="50" height="50" relative="1" as="geometry">
                        <mxPoint x="69" y="546" as="sourcePoint"/>
                        <mxPoint x="-15" y="474" as="targetPoint"/>
                        <Array as="points">
                            <mxPoint x="20" y="546"/>
                            <mxPoint x="20" y="474"/>
                        </Array>
                    </mxGeometry>
                </mxCell>
                <mxCell id="410" value="" style="edgeStyle=segmentEdgeStyle;endArrow=classic;html=1;curved=0;rounded=1;endSize=8;startSize=8;labelBackgroundColor=default;strokeColor=default;fontFamily=Helvetica;fontSize=11;fontColor=default;shape=connector;exitX=-0.043;exitY=0.667;exitDx=0;exitDy=0;exitPerimeter=0;entryX=1.053;entryY=0.641;entryDx=0;entryDy=0;entryPerimeter=0;strokeWidth=3;" parent="1" target="348" edge="1">
                    <mxGeometry width="50" height="50" relative="1" as="geometry">
                        <mxPoint x="515" y="231.01" as="sourcePoint"/>
                        <mxPoint x="291" y="550" as="targetPoint"/>
                        <Array as="points">
                            <mxPoint x="380" y="231"/>
                            <mxPoint x="380" y="550"/>
                        </Array>
                    </mxGeometry>
                </mxCell>
                <mxCell id="414" value="" style="edgeStyle=orthogonalEdgeStyle;endArrow=classic;html=1;rounded=1;endSize=8;startSize=8;labelBackgroundColor=default;strokeColor=default;fontFamily=Helvetica;fontSize=11;fontColor=default;shape=connector;strokeWidth=3;" parent="1" edge="1">
                    <mxGeometry width="50" height="50" relative="1" as="geometry">
                        <mxPoint x="500" y="396" as="sourcePoint"/>
                        <mxPoint x="1011" y="165" as="targetPoint"/>
                        <Array as="points">
                            <mxPoint x="420" y="396"/>
                            <mxPoint x="420" y="570"/>
                            <mxPoint x="838" y="570"/>
                            <mxPoint x="838" y="165"/>
                        </Array>
                    </mxGeometry>
                </mxCell>
                <mxCell id="491" value="「ホーム」画面" style="swimlane;fontStyle=1;childLayout=stackLayout;horizontal=1;startSize=26;fillColor=#fff2cc;horizontalStack=0;resizeParent=1;resizeParentMax=0;resizeLast=0;collapsible=1;marginBottom=0;html=1;shadow=0;strokeColor=#d6b656;fontFamily=Helvetica;fontSize=12;rounded=1;strokeWidth=3;" parent="1" vertex="1">
                    <mxGeometry x="1011" y="159.5" width="177" height="52" as="geometry"/>
                </mxCell>
                <mxCell id="492" value="「商品を探す」をクリック" style="text;strokeColor=none;fillColor=none;align=center;verticalAlign=top;spacingLeft=4;spacingRight=4;overflow=hidden;rotatable=0;points=[[0,0.5],[1,0.5]];portConstraint=eastwest;whiteSpace=wrap;html=1;shadow=0;fontFamily=Helvetica;fontSize=12;fontColor=default;startSize=30;rounded=1;strokeWidth=3;" parent="491" vertex="1">
                    <mxGeometry y="26" width="177" height="26" as="geometry"/>
                </mxCell>
                <mxCell id="505" value="「商品一覧」画面" style="swimlane;fontStyle=1;childLayout=stackLayout;horizontal=1;startSize=30;horizontalStack=0;resizeParent=1;resizeParentMax=0;resizeLast=0;collapsible=1;marginBottom=0;whiteSpace=wrap;html=1;shadow=0;strokeColor=#d6b656;fontFamily=Helvetica;fontSize=12;fillColor=#fff2cc;align=center;rounded=1;strokeWidth=3;" parent="1" vertex="1">
                    <mxGeometry x="994" y="294.27" width="183" height="120" as="geometry"/>
                </mxCell>
                <mxCell id="731" value="「詳細」をクリック" style="text;align=center;verticalAlign=middle;spacingLeft=4;spacingRight=4;overflow=hidden;points=[[0,0.5],[1,0.5]];portConstraint=eastwest;rotatable=0;whiteSpace=wrap;html=1;shadow=0;fontFamily=Helvetica;fontSize=12;strokeColor=#D6B656;rounded=1;strokeWidth=3;" parent="505" vertex="1">
                    <mxGeometry y="30" width="183" height="30" as="geometry"/>
                </mxCell>
                <mxCell id="732" value="「レビューを見る」をクリック" style="text;align=center;verticalAlign=middle;spacingLeft=4;spacingRight=4;overflow=hidden;points=[[0,0.5],[1,0.5]];portConstraint=eastwest;rotatable=0;whiteSpace=wrap;html=1;shadow=0;fontFamily=Helvetica;fontSize=12;strokeColor=#D6B656;rounded=1;strokeWidth=3;" parent="505" vertex="1">
                    <mxGeometry y="60" width="183" height="30" as="geometry"/>
                </mxCell>
                <mxCell id="506" value="「レビューを書く」をクリック" style="text;align=center;verticalAlign=middle;spacingLeft=4;spacingRight=4;overflow=hidden;points=[[0,0.5],[1,0.5]];portConstraint=eastwest;rotatable=0;whiteSpace=wrap;html=1;shadow=0;fontFamily=Helvetica;fontSize=12;strokeColor=#D6B656;rounded=1;strokeWidth=3;" parent="505" vertex="1">
                    <mxGeometry y="90" width="183" height="30" as="geometry"/>
                </mxCell>
                <mxCell id="512" value="" style="endArrow=classic;html=1;fontFamily=Helvetica;fontSize=12;fontColor=default;startSize=30;edgeStyle=elbowEdgeStyle;elbow=vertical;fontStyle=0;rounded=1;strokeWidth=3;" parent="1" edge="1">
                    <mxGeometry width="50" height="50" relative="1" as="geometry">
                        <mxPoint x="-112" y="97" as="sourcePoint"/>
                        <mxPoint x="-447" y="200" as="targetPoint"/>
                        <Array as="points">
                            <mxPoint x="-122" y="130"/>
                            <mxPoint x="-108" y="135"/>
                            <mxPoint x="-199" y="135"/>
                            <mxPoint x="-356" y="134.87"/>
                        </Array>
                    </mxGeometry>
                </mxCell>
                <mxCell id="513" value="「ホーム」画面" style="swimlane;fontStyle=1;childLayout=stackLayout;horizontal=1;startSize=26;fillColor=#fff2cc;horizontalStack=0;resizeParent=1;resizeParentMax=0;resizeLast=0;collapsible=1;marginBottom=0;html=1;shadow=0;strokeColor=#d6b656;fontFamily=Helvetica;fontSize=12;rounded=1;strokeWidth=3;" parent="1" vertex="1">
                    <mxGeometry x="-541" y="203" width="183" height="59" as="geometry"/>
                </mxCell>
                <mxCell id="514" value="「商品を探す」をクリック" style="text;strokeColor=none;fillColor=none;align=center;verticalAlign=middle;spacingLeft=4;spacingRight=4;overflow=hidden;rotatable=0;points=[[0,0.5],[1,0.5]];portConstraint=eastwest;whiteSpace=wrap;html=1;shadow=0;fontFamily=Helvetica;fontSize=12;fontColor=default;startSize=30;rounded=1;strokeWidth=3;" parent="513" vertex="1">
                    <mxGeometry y="26" width="183" height="33" as="geometry"/>
                </mxCell>
                <mxCell id="515" value="「商品詳細」画面" style="swimlane;fontStyle=1;childLayout=stackLayout;horizontal=1;startSize=30;horizontalStack=0;resizeParent=1;resizeParentMax=0;resizeLast=0;collapsible=1;marginBottom=0;whiteSpace=wrap;html=1;shadow=0;strokeColor=#d6b656;fontFamily=Helvetica;fontSize=12;fillColor=#fff2cc;align=center;rounded=1;strokeWidth=3;" parent="1" vertex="1">
                    <mxGeometry x="-552" y="482" width="206" height="120" as="geometry"/>
                </mxCell>
                <mxCell id="740" value="「カート追加」をクリック" style="text;align=center;verticalAlign=middle;spacingLeft=4;spacingRight=4;overflow=hidden;points=[[0,0.5],[1,0.5]];portConstraint=eastwest;rotatable=0;whiteSpace=wrap;html=1;shadow=0;fontFamily=Helvetica;fontSize=12;strokeColor=#D6B656;rounded=1;strokeWidth=3;" parent="515" vertex="1">
                    <mxGeometry y="30" width="206" height="30" as="geometry"/>
                </mxCell>
                <mxCell id="741" value="「レビューを保存する」をクリック" style="text;align=center;verticalAlign=middle;spacingLeft=4;spacingRight=4;overflow=hidden;points=[[0,0.5],[1,0.5]];portConstraint=eastwest;rotatable=0;whiteSpace=wrap;html=1;shadow=0;fontFamily=Helvetica;fontSize=12;strokeColor=#D6B656;rounded=1;strokeWidth=3;" parent="515" vertex="1">
                    <mxGeometry y="60" width="206" height="30" as="geometry"/>
                </mxCell>
                <mxCell id="516" value="「他のレビューを見る」をクリック" style="text;align=center;verticalAlign=middle;spacingLeft=4;spacingRight=4;overflow=hidden;points=[[0,0.5],[1,0.5]];portConstraint=eastwest;rotatable=0;whiteSpace=wrap;html=1;shadow=0;fontFamily=Helvetica;fontSize=12;strokeColor=#D6B656;rounded=1;strokeWidth=3;" parent="515" vertex="1">
                    <mxGeometry y="90" width="206" height="30" as="geometry"/>
                </mxCell>
                <mxCell id="517" value="「商品一覧」画面" style="swimlane;fontStyle=1;childLayout=stackLayout;horizontal=1;startSize=30;horizontalStack=0;resizeParent=1;resizeParentMax=0;resizeLast=0;collapsible=1;marginBottom=0;whiteSpace=wrap;html=1;shadow=0;strokeColor=#d6b656;fontFamily=Helvetica;fontSize=12;fillColor=#fff2cc;align=center;rounded=1;strokeWidth=3;" parent="1" vertex="1">
                    <mxGeometry x="-541" y="304.13" width="180" height="120" as="geometry"/>
                </mxCell>
                <mxCell id="685" value="「詳細」をクリック" style="text;align=center;verticalAlign=middle;spacingLeft=4;spacingRight=4;overflow=hidden;points=[[0,0.5],[1,0.5]];portConstraint=eastwest;rotatable=0;whiteSpace=wrap;html=1;shadow=0;fontFamily=Helvetica;fontSize=12;strokeColor=#D6B656;rounded=1;strokeWidth=3;" parent="517" vertex="1">
                    <mxGeometry y="30" width="180" height="30" as="geometry"/>
                </mxCell>
                <mxCell id="686" value="「レビューを見る」をクリック" style="text;align=center;verticalAlign=middle;spacingLeft=4;spacingRight=4;overflow=hidden;points=[[0,0.5],[1,0.5]];portConstraint=eastwest;rotatable=0;whiteSpace=wrap;html=1;shadow=0;fontFamily=Helvetica;fontSize=12;strokeColor=#D6B656;rounded=1;strokeWidth=3;" parent="517" vertex="1">
                    <mxGeometry y="60" width="180" height="30" as="geometry"/>
                </mxCell>
                <mxCell id="518" value="「レビューを書く」をクリック" style="text;align=center;verticalAlign=middle;spacingLeft=4;spacingRight=4;overflow=hidden;points=[[0,0.5],[1,0.5]];portConstraint=eastwest;rotatable=0;whiteSpace=wrap;html=1;shadow=0;fontFamily=Helvetica;fontSize=12;strokeColor=#D6B656;rounded=1;strokeWidth=3;" parent="517" vertex="1">
                    <mxGeometry y="90" width="180" height="30" as="geometry"/>
                </mxCell>
                <mxCell id="396" value="" style="endArrow=classic;html=1;fontFamily=Helvetica;fontSize=12;fontColor=default;startSize=30;edgeStyle=elbowEdgeStyle;elbow=vertical;entryX=0.425;entryY=0;entryDx=0;entryDy=0;entryPerimeter=0;rounded=1;strokeWidth=3;" parent="1" target="364" edge="1">
                    <mxGeometry width="50" height="50" relative="1" as="geometry">
                        <mxPoint x="440.5" y="97" as="sourcePoint"/>
                        <mxPoint x="393" y="147" as="targetPoint"/>
                        <Array as="points">
                            <mxPoint x="344" y="120"/>
                            <mxPoint x="494" y="117"/>
                            <mxPoint x="415" y="119"/>
                            <mxPoint x="325" y="132"/>
                            <mxPoint x="346" y="122"/>
                            <mxPoint x="296" y="129"/>
                            <mxPoint x="272" y="129"/>
                        </Array>
                    </mxGeometry>
                </mxCell>
                <mxCell id="521" value="" style="endArrow=classic;html=1;fontFamily=Helvetica;fontSize=12;fontColor=default;startSize=30;rounded=1;strokeWidth=3;" parent="1" edge="1">
                    <mxGeometry width="50" height="50" relative="1" as="geometry">
                        <mxPoint x="599" y="96" as="sourcePoint"/>
                        <mxPoint x="599" y="147" as="targetPoint"/>
                        <Array as="points">
                            <mxPoint x="599" y="102"/>
                        </Array>
                    </mxGeometry>
                </mxCell>
                <mxCell id="522" value="" style="endArrow=classic;html=1;fontFamily=Helvetica;fontSize=12;fontColor=default;startSize=30;edgeStyle=elbowEdgeStyle;elbow=vertical;entryX=0.425;entryY=0;entryDx=0;entryDy=0;entryPerimeter=0;rounded=1;strokeWidth=3;" parent="1" edge="1">
                    <mxGeometry width="50" height="50" relative="1" as="geometry">
                        <mxPoint x="247.5" y="94" as="sourcePoint"/>
                        <mxPoint x="157.94999999999982" y="147" as="targetPoint"/>
                        <Array as="points">
                            <mxPoint x="151" y="117"/>
                            <mxPoint x="301" y="114"/>
                            <mxPoint x="222" y="116"/>
                            <mxPoint x="132" y="129"/>
                            <mxPoint x="153" y="119"/>
                            <mxPoint x="103" y="126"/>
                            <mxPoint x="79" y="126"/>
                        </Array>
                    </mxGeometry>
                </mxCell>
                <mxCell id="527" value="" style="edgeStyle=segmentEdgeStyle;endArrow=classic;html=1;curved=0;rounded=1;endSize=8;startSize=8;labelBackgroundColor=default;strokeColor=default;fontFamily=Helvetica;fontSize=11;fontColor=default;shape=connector;strokeWidth=3;" parent="1" edge="1">
                    <mxGeometry width="50" height="50" relative="1" as="geometry">
                        <mxPoint x="-454" y="266" as="sourcePoint"/>
                        <mxPoint x="-454" y="302" as="targetPoint"/>
                        <Array as="points">
                            <mxPoint x="-454" y="281"/>
                            <mxPoint x="-454" y="281"/>
                        </Array>
                    </mxGeometry>
                </mxCell>
                <mxCell id="533" value="" style="edgeStyle=segmentEdgeStyle;endArrow=classic;html=1;curved=0;rounded=1;endSize=8;startSize=8;labelBackgroundColor=default;strokeColor=default;fontFamily=Helvetica;fontSize=11;fontColor=default;shape=connector;fontStyle=0;strokeWidth=3;" parent="1" target="515" edge="1">
                    <mxGeometry width="50" height="50" relative="1" as="geometry">
                        <mxPoint x="-356" y="357" as="sourcePoint"/>
                        <mxPoint x="-552" y="500" as="targetPoint"/>
                        <Array as="points">
                            <mxPoint x="-321" y="357"/>
                            <mxPoint x="-321" y="456"/>
                            <mxPoint x="-407" y="456"/>
                        </Array>
                    </mxGeometry>
                </mxCell>
                <mxCell id="534" value="" style="edgeStyle=segmentEdgeStyle;endArrow=classic;html=1;curved=0;rounded=1;endSize=8;startSize=8;exitX=0.557;exitY=0.933;exitDx=0;exitDy=0;exitPerimeter=0;fontStyle=0;strokeWidth=3;" parent="1" source="365" edge="1">
                    <mxGeometry width="50" height="50" relative="1" as="geometry">
                        <mxPoint x="372" y="220" as="sourcePoint"/>
                        <mxPoint x="-353" y="217" as="targetPoint"/>
                        <Array as="points">
                            <mxPoint x="374" y="229"/>
                            <mxPoint x="-252" y="229"/>
                            <mxPoint x="-252" y="217"/>
                        </Array>
                    </mxGeometry>
                </mxCell>
                <mxCell id="584" value="" style="endArrow=classic;html=1;fontFamily=Helvetica;fontSize=12;fontColor=default;startSize=30;rounded=1;strokeWidth=3;" parent="1" edge="1">
                    <mxGeometry width="50" height="50" relative="1" as="geometry">
                        <mxPoint x="1084" y="221" as="sourcePoint"/>
                        <mxPoint x="1083.5" y="292" as="targetPoint"/>
                        <Array as="points">
                            <mxPoint x="1084" y="243"/>
                        </Array>
                    </mxGeometry>
                </mxCell>
                <mxCell id="587" value="" style="endArrow=classic;html=1;fontFamily=Helvetica;fontSize=12;fontColor=default;startSize=30;rounded=1;strokeWidth=3;" parent="1" edge="1">
                    <mxGeometry width="50" height="50" relative="1" as="geometry">
                        <mxPoint x="1347.26" y="95" as="sourcePoint"/>
                        <mxPoint x="1347.0007407407409" y="155" as="targetPoint"/>
                        <Array as="points">
                            <mxPoint x="1347.26" y="127"/>
                        </Array>
                    </mxGeometry>
                </mxCell>
                <mxCell id="691" value="" style="edgeStyle=elbowEdgeStyle;elbow=horizontal;endArrow=classic;html=1;curved=0;rounded=1;endSize=8;startSize=8;exitX=-0.01;exitY=0.567;exitDx=0;exitDy=0;exitPerimeter=0;fontStyle=0;strokeWidth=3;" parent="1" source="740" edge="1">
                    <mxGeometry width="50" height="50" relative="1" as="geometry">
                        <mxPoint x="-577" y="499.27" as="sourcePoint"/>
                        <mxPoint x="63" y="153" as="targetPoint"/>
                        <Array as="points">
                            <mxPoint x="-585" y="344"/>
                            <mxPoint x="-587" y="511"/>
                            <mxPoint x="-587" y="341"/>
                            <mxPoint x="-542" y="385"/>
                            <mxPoint x="-558" y="341"/>
                        </Array>
                    </mxGeometry>
                </mxCell>
                <mxCell id="696" value="「レビュー一覧」画面" style="swimlane;fontStyle=1;childLayout=stackLayout;horizontal=1;startSize=30;horizontalStack=0;resizeParent=1;resizeParentMax=0;resizeLast=0;collapsible=1;marginBottom=0;whiteSpace=wrap;html=1;shadow=0;strokeColor=#d6b656;fontFamily=Helvetica;fontSize=12;fillColor=#fff2cc;align=center;rounded=1;strokeWidth=3;" parent="1" vertex="1">
                    <mxGeometry x="-854" y="362.5" width="183" height="60" as="geometry"/>
                </mxCell>
                <mxCell id="697" value="「戻る」をクリック" style="text;align=center;verticalAlign=middle;spacingLeft=4;spacingRight=4;overflow=hidden;points=[[0,0.5],[1,0.5]];portConstraint=eastwest;rotatable=0;whiteSpace=wrap;html=1;shadow=0;fontFamily=Helvetica;fontSize=12;strokeColor=#D6B656;rounded=1;strokeWidth=3;" parent="696" vertex="1">
                    <mxGeometry y="30" width="183" height="30" as="geometry"/>
                </mxCell>
                <mxCell id="698" value="" style="edgeStyle=segmentEdgeStyle;endArrow=classic;html=1;curved=0;rounded=1;endSize=8;startSize=8;labelBackgroundColor=default;strokeColor=default;fontFamily=Helvetica;fontSize=11;fontColor=default;shape=connector;entryX=0.383;entryY=-0.042;entryDx=0;entryDy=0;entryPerimeter=0;fontStyle=0;strokeWidth=3;" parent="1" target="696" edge="1">
                    <mxGeometry width="50" height="50" relative="1" as="geometry">
                        <mxPoint x="-543" y="381" as="sourcePoint"/>
                        <mxPoint x="-788" y="335" as="targetPoint"/>
                        <Array as="points">
                            <mxPoint x="-605" y="381"/>
                            <mxPoint x="-605" y="335"/>
                            <mxPoint x="-784" y="335"/>
                        </Array>
                    </mxGeometry>
                </mxCell>
                <mxCell id="701" value="" style="edgeStyle=elbowEdgeStyle;elbow=horizontal;endArrow=classic;html=1;curved=0;rounded=1;endSize=8;startSize=8;fontStyle=0;strokeWidth=3;" parent="1" edge="1">
                    <mxGeometry width="50" height="50" relative="1" as="geometry">
                        <mxPoint x="-663" y="415" as="sourcePoint"/>
                        <mxPoint x="-542" y="320" as="targetPoint"/>
                        <Array as="points">
                            <mxPoint x="-632" y="358"/>
                        </Array>
                    </mxGeometry>
                </mxCell>
                <mxCell id="710" value="" style="edgeStyle=elbowEdgeStyle;elbow=horizontal;endArrow=classic;html=1;curved=0;rounded=1;endSize=8;startSize=8;fontStyle=0;strokeWidth=3;" parent="1" source="741" edge="1">
                    <mxGeometry width="50" height="50" relative="1" as="geometry">
                        <mxPoint x="-878.9870000000001" y="505" as="sourcePoint"/>
                        <mxPoint x="-859" y="378" as="targetPoint"/>
                        <Array as="points">
                            <mxPoint x="-891" y="477"/>
                        </Array>
                    </mxGeometry>
                </mxCell>
                <mxCell id="711" value="" style="edgeStyle=elbowEdgeStyle;elbow=horizontal;endArrow=classic;html=1;curved=0;rounded=1;endSize=8;startSize=8;exitX=-0.01;exitY=0.567;exitDx=0;exitDy=0;exitPerimeter=0;fontStyle=0;strokeWidth=3;" parent="1" source="516" edge="1">
                    <mxGeometry width="50" height="50" relative="1" as="geometry">
                        <mxPoint x="-864.03" y="535" as="sourcePoint"/>
                        <mxPoint x="-859" y="366" as="targetPoint"/>
                        <Array as="points">
                            <mxPoint x="-910" y="478"/>
                            <mxPoint x="-1051" y="447"/>
                        </Array>
                    </mxGeometry>
                </mxCell>
                <mxCell id="718" value="「レビュー一覧」画面" style="swimlane;fontStyle=1;childLayout=stackLayout;horizontal=1;startSize=30;horizontalStack=0;resizeParent=1;resizeParentMax=0;resizeLast=0;collapsible=1;marginBottom=0;whiteSpace=wrap;html=1;shadow=0;strokeColor=#d6b656;fontFamily=Helvetica;fontSize=12;fillColor=#fff2cc;align=center;rounded=1;strokeWidth=3;" parent="1" vertex="1">
                    <mxGeometry x="992" y="461" width="183" height="60" as="geometry"/>
                </mxCell>
                <mxCell id="719" value="「戻る」をクリック" style="text;align=center;verticalAlign=middle;spacingLeft=4;spacingRight=4;overflow=hidden;points=[[0,0.5],[1,0.5]];portConstraint=eastwest;rotatable=0;whiteSpace=wrap;html=1;shadow=0;fontFamily=Helvetica;fontSize=12;strokeColor=#D6B656;rounded=1;strokeWidth=3;" parent="718" vertex="1">
                    <mxGeometry y="30" width="183" height="30" as="geometry"/>
                </mxCell>
                <mxCell id="733" value="" style="edgeStyle=segmentEdgeStyle;endArrow=classic;html=1;curved=0;rounded=1;endSize=8;startSize=8;exitX=1.027;exitY=0.491;exitDx=0;exitDy=0;exitPerimeter=0;strokeWidth=3;" parent="1" source="731" edge="1">
                    <mxGeometry width="50" height="50" relative="1" as="geometry">
                        <mxPoint x="1216" y="378" as="sourcePoint"/>
                        <mxPoint x="1319" y="216" as="targetPoint"/>
                        <Array as="points">
                            <mxPoint x="1239" y="339"/>
                            <mxPoint x="1239" y="266"/>
                            <mxPoint x="1319" y="266"/>
                        </Array>
                    </mxGeometry>
                </mxCell>
                <mxCell id="734" value="" style="endArrow=classic;html=1;fontFamily=Helvetica;fontSize=12;fontColor=default;startSize=30;edgeStyle=elbowEdgeStyle;elbow=vertical;rounded=1;strokeWidth=3;entryX=0.714;entryY=-0.135;entryDx=0;entryDy=0;entryPerimeter=0;" parent="1" target="221" edge="1">
                    <mxGeometry width="50" height="50" relative="1" as="geometry">
                        <mxPoint x="1498" y="95" as="sourcePoint"/>
                        <mxPoint x="1630" y="137" as="targetPoint"/>
                        <Array as="points">
                            <mxPoint x="1502" y="124"/>
                        </Array>
                    </mxGeometry>
                </mxCell>
                <mxCell id="735" value="" style="edgeStyle=elbowEdgeStyle;elbow=horizontal;endArrow=classic;html=1;curved=0;rounded=1;endSize=8;startSize=8;entryX=0;entryY=0.233;entryDx=0;entryDy=0;entryPerimeter=0;strokeWidth=3;" parent="1" target="718" edge="1">
                    <mxGeometry width="50" height="50" relative="1" as="geometry">
                        <mxPoint x="989" y="369" as="sourcePoint"/>
                        <mxPoint x="1345" y="351" as="targetPoint"/>
                        <Array as="points">
                            <mxPoint x="920" y="428"/>
                            <mxPoint x="1307" y="421"/>
                        </Array>
                    </mxGeometry>
                </mxCell>
                <mxCell id="739" value="" style="edgeStyle=elbowEdgeStyle;elbow=horizontal;endArrow=classic;html=1;curved=0;rounded=1;endSize=8;startSize=8;entryX=0.226;entryY=1.231;entryDx=0;entryDy=0;entryPerimeter=0;strokeWidth=3;" parent="1" target="268" edge="1">
                    <mxGeometry width="50" height="50" relative="1" as="geometry">
                        <mxPoint x="1177" y="396.5" as="sourcePoint"/>
                        <mxPoint x="1270.056" y="226.99" as="targetPoint"/>
                        <Array as="points">
                            <mxPoint x="1270" y="313"/>
                        </Array>
                    </mxGeometry>
                </mxCell>
                <mxCell id="744" value="失敗" style="text;strokeColor=none;fillColor=none;align=left;verticalAlign=top;spacingLeft=4;spacingRight=4;overflow=hidden;rotatable=0;points=[[0,0.5],[1,0.5]];portConstraint=eastwest;whiteSpace=wrap;html=1;shadow=0;fontFamily=Helvetica;fontSize=10;fontColor=default;startSize=30;fontStyle=1;rounded=1;strokeWidth=3;" parent="1" vertex="1">
                    <mxGeometry x="-343" y="468.77" width="37" height="21" as="geometry"/>
                </mxCell>
                <mxCell id="745" value="" style="endArrow=classic;html=1;fontFamily=Helvetica;fontSize=12;fontColor=default;startSize=30;edgeStyle=orthogonalEdgeStyle;elbow=vertical;curved=1;fontStyle=0;rounded=1;strokeWidth=3;" parent="1" edge="1">
                    <mxGeometry width="50" height="50" relative="1" as="geometry">
                        <mxPoint x="-340" y="560.77" as="sourcePoint"/>
                        <mxPoint x="-342" y="500.77" as="targetPoint"/>
                        <Array as="points">
                            <mxPoint x="-290" y="560.77"/>
                            <mxPoint x="-290" y="500.77"/>
                        </Array>
                    </mxGeometry>
                </mxCell>
                <mxCell id="746" value="成功" style="text;strokeColor=none;fillColor=none;align=left;verticalAlign=top;spacingLeft=4;spacingRight=4;overflow=hidden;rotatable=0;points=[[0,0.5],[1,0.5]];portConstraint=eastwest;whiteSpace=wrap;html=1;shadow=0;fontFamily=Helvetica;fontSize=10;fontColor=default;startSize=30;fontStyle=1;rounded=1;strokeWidth=3;" parent="1" vertex="1">
                    <mxGeometry x="-627" y="531.5" width="37" height="21" as="geometry"/>
                </mxCell>
                <mxCell id="751" value="" style="edgeStyle=elbowEdgeStyle;elbow=horizontal;endArrow=classic;html=1;curved=0;rounded=1;endSize=8;startSize=8;exitX=-0.016;exitY=0.533;exitDx=0;exitDy=0;exitPerimeter=0;strokeWidth=3;" parent="1" source="719" edge="1">
                    <mxGeometry width="50" height="50" relative="1" as="geometry">
                        <mxPoint x="1351" y="371" as="sourcePoint"/>
                        <mxPoint x="990" y="308" as="targetPoint"/>
                        <Array as="points">
                            <mxPoint x="900" y="415"/>
                            <mxPoint x="976" y="313"/>
                            <mxPoint x="907" y="408"/>
                        </Array>
                    </mxGeometry>
                </mxCell>
                <mxCell id="775" value="" style="edgeStyle=segmentEdgeStyle;endArrow=classic;html=1;curved=0;rounded=1;endSize=8;startSize=8;labelBackgroundColor=default;strokeColor=default;fontFamily=Helvetica;fontSize=11;fontColor=default;shape=connector;entryX=0.179;entryY=0.017;entryDx=0;entryDy=0;entryPerimeter=0;strokeWidth=3;" parent="1" target="356" edge="1">
                    <mxGeometry width="50" height="50" relative="1" as="geometry">
                        <mxPoint x="70" y="328.13" as="sourcePoint"/>
                        <mxPoint x="115" y="122" as="targetPoint"/>
                        <Array as="points">
                            <mxPoint x="38" y="328"/>
                            <mxPoint x="38" y="113"/>
                            <mxPoint x="101" y="113"/>
                        </Array>
                    </mxGeometry>
                </mxCell>
                <mxCell id="814" value="" style="edgeStyle=segmentEdgeStyle;endArrow=classic;html=1;curved=0;rounded=1;endSize=8;startSize=8;labelBackgroundColor=default;strokeColor=default;fontFamily=Helvetica;fontSize=11;fontColor=default;shape=connector;strokeWidth=3;" parent="1" edge="1">
                    <mxGeometry width="50" height="50" relative="1" as="geometry">
                        <mxPoint x="-455" y="432" as="sourcePoint"/>
                        <mxPoint x="-455" y="475" as="targetPoint"/>
                        <Array as="points">
                            <mxPoint x="-455" y="454"/>
                            <mxPoint x="-455" y="454"/>
                        </Array>
                    </mxGeometry>
                </mxCell>
                <mxCell id="816" value="" style="edgeStyle=segmentEdgeStyle;endArrow=classic;html=1;curved=0;rounded=1;endSize=8;startSize=8;labelBackgroundColor=default;strokeColor=default;fontFamily=Helvetica;fontSize=11;fontColor=default;shape=connector;fontStyle=0;strokeWidth=3;entryX=0.5;entryY=0;entryDx=0;entryDy=0;" parent="1" target="360" edge="1">
                    <mxGeometry width="50" height="50" relative="1" as="geometry">
                        <mxPoint x="247" y="290.1" as="sourcePoint"/>
                        <mxPoint x="156" y="408.1" as="targetPoint"/>
                        <Array as="points">
                            <mxPoint x="314" y="290"/>
                            <mxPoint x="314" y="363"/>
                            <mxPoint x="156" y="363"/>
                            <mxPoint x="156" y="381"/>
                            <mxPoint x="157" y="381"/>
                        </Array>
                    </mxGeometry>
                </mxCell>
                <mxCell id="823" value="" style="endArrow=classic;html=1;fontFamily=Helvetica;fontSize=12;fontColor=default;startSize=30;edgeStyle=orthogonalEdgeStyle;elbow=vertical;curved=1;rounded=1;strokeWidth=3;" parent="1" edge="1">
                    <mxGeometry width="50" height="50" relative="1" as="geometry">
                        <mxPoint x="458" y="196" as="sourcePoint"/>
                        <mxPoint x="456" y="169" as="targetPoint"/>
                        <Array as="points">
                            <mxPoint x="500" y="196"/>
                            <mxPoint x="500" y="169"/>
                        </Array>
                    </mxGeometry>
                </mxCell>
                <mxCell id="824" value="失敗" style="text;strokeColor=none;fillColor=none;align=left;verticalAlign=top;spacingLeft=4;spacingRight=4;overflow=hidden;rotatable=0;points=[[0,0.5],[1,0.5]];portConstraint=eastwest;whiteSpace=wrap;html=1;shadow=0;fontFamily=Helvetica;fontSize=10;fontColor=default;startSize=30;fontStyle=1;rounded=1;strokeWidth=3;" parent="1" vertex="1">
                    <mxGeometry x="478" y="146" width="37" height="21" as="geometry"/>
                </mxCell>
                <mxCell id="825" value="" style="endArrow=classic;html=1;fontFamily=Helvetica;fontSize=12;fontColor=default;startSize=30;edgeStyle=orthogonalEdgeStyle;elbow=vertical;curved=1;rounded=1;strokeWidth=3;" parent="1" edge="1">
                    <mxGeometry width="50" height="50" relative="1" as="geometry">
                        <mxPoint x="680.5" y="396.5" as="sourcePoint"/>
                        <mxPoint x="678.5" y="369.5" as="targetPoint"/>
                        <Array as="points">
                            <mxPoint x="722.5" y="396.5"/>
                            <mxPoint x="722.5" y="369.5"/>
                        </Array>
                    </mxGeometry>
                </mxCell>
                <mxCell id="826" value="失敗" style="text;strokeColor=none;fillColor=none;align=left;verticalAlign=top;spacingLeft=4;spacingRight=4;overflow=hidden;rotatable=0;points=[[0,0.5],[1,0.5]];portConstraint=eastwest;whiteSpace=wrap;html=1;shadow=0;fontFamily=Helvetica;fontSize=10;fontColor=default;startSize=30;fontStyle=1;rounded=1;strokeWidth=3;" parent="1" vertex="1">
                    <mxGeometry x="700.5" y="346.5" width="37" height="21" as="geometry"/>
                </mxCell>
                <mxCell id="828" value="成功" style="text;strokeColor=none;fillColor=none;align=left;verticalAlign=top;spacingLeft=4;spacingRight=4;overflow=hidden;rotatable=0;points=[[0,0.5],[1,0.5]];portConstraint=eastwest;whiteSpace=wrap;html=1;shadow=0;fontFamily=Helvetica;fontSize=10;fontColor=default;startSize=30;fontStyle=1;rounded=1;strokeWidth=3;" parent="1" vertex="1">
                    <mxGeometry x="467" y="262" width="37" height="21" as="geometry"/>
                </mxCell>
                <mxCell id="829" value="" style="edgeStyle=orthogonalEdgeStyle;endArrow=classic;html=1;rounded=1;endSize=8;startSize=8;labelBackgroundColor=default;strokeColor=default;fontFamily=Helvetica;fontSize=11;fontColor=default;shape=connector;strokeWidth=3;exitX=-0.044;exitY=0.667;exitDx=0;exitDy=0;exitPerimeter=0;" parent="1" source="346" edge="1">
                    <mxGeometry width="50" height="50" relative="1" as="geometry">
                        <mxPoint x="508" y="431" as="sourcePoint"/>
                        <mxPoint x="1008" y="185" as="targetPoint"/>
                        <Array as="points">
                            <mxPoint x="449" y="431"/>
                            <mxPoint x="449" y="532"/>
                            <mxPoint x="766" y="532"/>
                            <mxPoint x="766" y="185"/>
                        </Array>
                    </mxGeometry>
                </mxCell>
                <mxCell id="830" value="成功" style="text;strokeColor=none;fillColor=none;align=left;verticalAlign=top;spacingLeft=4;spacingRight=4;overflow=hidden;rotatable=0;points=[[0,0.5],[1,0.5]];portConstraint=eastwest;whiteSpace=wrap;html=1;shadow=0;fontFamily=Helvetica;fontSize=10;fontColor=default;startSize=30;fontStyle=1;rounded=1;strokeWidth=3;" parent="1" vertex="1">
                    <mxGeometry x="464" y="368.5" width="37" height="21" as="geometry"/>
                </mxCell>
                <mxCell id="831" value="成功" style="text;strokeColor=none;fillColor=none;align=left;verticalAlign=top;spacingLeft=4;spacingRight=4;overflow=hidden;rotatable=0;points=[[0,0.5],[1,0.5]];portConstraint=eastwest;whiteSpace=wrap;html=1;shadow=0;fontFamily=Helvetica;fontSize=10;fontColor=default;startSize=30;fontStyle=1;rounded=1;strokeWidth=3;" parent="1" vertex="1">
                    <mxGeometry x="467" y="436.77" width="34" height="21" as="geometry"/>
                </mxCell>
                <mxCell id="833" value="" style="edgeStyle=segmentEdgeStyle;endArrow=classic;html=1;curved=0;rounded=1;endSize=8;startSize=8;labelBackgroundColor=default;strokeColor=default;fontFamily=Helvetica;fontSize=11;fontColor=default;shape=connector;fontStyle=0;strokeWidth=3;" parent="1" edge="1">
                    <mxGeometry width="50" height="50" relative="1" as="geometry">
                        <mxPoint x="688" y="196.45999999999992" as="sourcePoint"/>
                        <mxPoint x="598" y="344" as="targetPoint"/>
                        <Array as="points">
                            <mxPoint x="726" y="197"/>
                            <mxPoint x="726" y="287"/>
                            <mxPoint x="598" y="287"/>
                        </Array>
                    </mxGeometry>
                </mxCell>
                <mxCell id="834" value="失敗" style="text;strokeColor=none;fillColor=none;align=left;verticalAlign=top;spacingLeft=4;spacingRight=4;overflow=hidden;rotatable=0;points=[[0,0.5],[1,0.5]];portConstraint=eastwest;whiteSpace=wrap;html=1;shadow=0;fontFamily=Helvetica;fontSize=10;fontColor=default;startSize=30;fontStyle=1;rounded=1;strokeWidth=3;" parent="1" vertex="1">
                    <mxGeometry x="689" y="140.99999999999997" width="37" height="21" as="geometry"/>
                </mxCell>
                <mxCell id="835" value="" style="endArrow=classic;html=1;fontFamily=Helvetica;fontSize=12;fontColor=default;startSize=30;edgeStyle=orthogonalEdgeStyle;elbow=vertical;curved=1;fontStyle=0;rounded=1;strokeWidth=3;" parent="1" edge="1">
                    <mxGeometry width="50" height="50" relative="1" as="geometry">
                        <mxPoint x="690" y="253" as="sourcePoint"/>
                        <mxPoint x="690" y="173" as="targetPoint"/>
                        <Array as="points">
                            <mxPoint x="753" y="253"/>
                            <mxPoint x="753" y="173"/>
                        </Array>
                    </mxGeometry>
                </mxCell>
                <mxCell id="837" value="" style="edgeStyle=segmentEdgeStyle;endArrow=classic;html=1;curved=0;rounded=1;endSize=8;startSize=8;labelBackgroundColor=default;strokeColor=default;fontFamily=Helvetica;fontSize=11;fontColor=default;shape=connector;fontStyle=0;strokeWidth=3;exitX=1;exitY=0.5;exitDx=0;exitDy=0;" parent="1" source="346" edge="1">
                    <mxGeometry width="50" height="50" relative="1" as="geometry">
                        <mxPoint x="753" y="422" as="sourcePoint"/>
                        <mxPoint x="536" y="346" as="targetPoint"/>
                        <Array as="points">
                            <mxPoint x="746" y="425"/>
                            <mxPoint x="746" y="301"/>
                            <mxPoint x="536" y="301"/>
                        </Array>
                    </mxGeometry>
                </mxCell>
                <mxCell id="838" value="失敗" style="text;strokeColor=none;fillColor=none;align=left;verticalAlign=top;spacingLeft=4;spacingRight=4;overflow=hidden;rotatable=0;points=[[0,0.5],[1,0.5]];portConstraint=eastwest;whiteSpace=wrap;html=1;shadow=0;fontFamily=Helvetica;fontSize=10;fontColor=default;startSize=30;fontStyle=1;rounded=1;strokeWidth=3;" parent="1" vertex="1">
                    <mxGeometry x="496" y="291" width="37" height="21" as="geometry"/>
                </mxCell>
                <mxCell id="839" value="" style="edgeStyle=segmentEdgeStyle;endArrow=classic;html=1;curved=0;rounded=1;endSize=8;startSize=8;labelBackgroundColor=default;strokeColor=default;fontFamily=Helvetica;fontSize=11;fontColor=default;shape=connector;strokeWidth=3;exitX=-0.041;exitY=0.433;exitDx=0;exitDy=0;exitPerimeter=0;entryX=0.757;entryY=1.019;entryDx=0;entryDy=0;entryPerimeter=0;" parent="1" source="353" target="492" edge="1">
                    <mxGeometry width="50" height="50" relative="1" as="geometry">
                        <mxPoint x="450" y="255" as="sourcePoint"/>
                        <mxPoint x="1144" y="223" as="targetPoint"/>
                        <Array as="points">
                            <mxPoint x="508" y="255"/>
                            <mxPoint x="403" y="255"/>
                            <mxPoint x="403" y="606"/>
                            <mxPoint x="1428" y="606"/>
                            <mxPoint x="1428" y="283"/>
                            <mxPoint x="1144" y="283"/>
                        </Array>
                    </mxGeometry>
                </mxCell>
            </root>
        </mxGraphModel>
    </diagram>
</mxfile>